# xmcd CD database file
#
# Track frame offsets:
#	182
#	9032
#	21295
#	42755
#	61735
#	76420
#	93937
#	113275
#	123085
#	137077
#	156122
#	172847
#	189125
#	208202
#	218565
#	232102
#	249830
#	266515
#
# Disc length: 3805 seconds
#
# Revision: 0
# Processed by: cddbd v1.4PL0 Copyright (c) Steve Scherf et al.
# Submitted via: Feurio! 1.64 - http://www.feurio.com
#
DISCID=d20edb12
DTITLE=Various Artist - Lass mal den Toni machen
DYEAR=1900
DGENRE=Oldies
TTITLE0=Tony Marshall - Lass mal den Toni machen
TTITLE1=Middle of the Road - Chirpy Chirpy Cheep Cheep
TTITLE2=Adamo - Inch´ Allah
TTITLE3=New Baccara - Yes Sir, I can Boogie
TTITLE4=Rocco Granata - Marina
TTITLE5=Paola - Blue Bayou
TTITLE6=Grit van Jüten Eberhard Lorenz Tony Marshall - Medley
TTITLE7=Roberto Sacca - Valencia
TTITLE8=Tony Marshall - ...und die Heimat
TTITLE9=Roger Whittaker - Schön war die Zeit
TTITLE10=Die Flippers - Lotusblume
TTITLE11=Die Flippers - Wenn die wilden Kirschen blüh´n in Catania
TTITLE12=Marinenchor der Schwarzmeerflotte UDSSR - Schiff Warjag
TTITLE13=Marinenchor der Schwarzmeerflotte UDSSR - Abendglocken
TTITLE14=Nicki - Wenn i mit dir tanz
TTITLE15=Nicki - I bin a bayrisches Cowgirl
TTITLE16=Tony Marshall - Heute hau´n wir auf die Schöne Maid
TTITLE17=Tony Marshall - Na Na Hey Hey Goodbye
EXTD=Pepi
EXTT0=
EXTT1=
EXTT2=
EXTT3=
EXTT4=
EXTT5=
EXTT6=
EXTT7=
EXTT8=
EXTT9=
EXTT10=
EXTT11=
EXTT12=
EXTT13=
EXTT14=
EXTT15=
EXTT16=
EXTT17=
PLAYORDER=
